<svg width="292" height="74" viewBox="0 0 292 74" fill="none" xmlns="http://www.w3.org/2000/svg">
<g id="ArduinoLab logo">
<path id="Subtract" fill-rule="evenodd" clip-rule="evenodd" d="M29.1552 0C33.1552 0 34.6552 6 34.6552 6L58.1903 71.3223C58.6598 72.6256 57.6939 74 56.3085 74H36.914C38.584 74 40.6345 73.3205 41.4745 72.4805C42.3144 71.6406 42.9939 70.2765 42.9941 69.4404C42.9941 68.6044 42.4539 66.66 41.7939 65.126V65.1221L35.0741 49.4277C34.4142 47.8917 33.8739 45.2676 33.8739 43.5957C33.8741 41.9239 34.9003 40.5557 36.1542 40.5557C37.4081 40.5556 38.4344 39.5283 38.4345 38.2764C38.4345 37.0244 37.0663 35.9962 35.3945 35.9961H21.7138C20.042 35.9963 18.6737 37.0205 18.6737 38.2764C18.6739 39.5322 19.7002 40.5556 20.954 40.5557C22.2079 40.5557 23.2341 41.9239 23.2343 43.5957C23.2343 45.2676 22.694 47.8916 22.0341 49.4297L15.3144 65.126C14.6544 66.662 14.1142 68.6064 14.1142 69.4404C14.1143 70.2744 14.7978 71.6466 15.6337 72.4805C16.4697 73.3145 18.5223 74 20.1943 74H2.00187C0.616508 74 -0.349426 72.6256 0.120037 71.3223L23.6552 6C23.6552 6 25.1552 0 29.1552 0ZM32.8857 29.3311C32.3112 29.3313 31.7594 29.5594 31.3534 29.9658C30.9474 30.3722 30.7204 30.9217 30.7206 31.4961C30.7206 32.0704 30.9484 32.6212 31.3544 33.0273C31.7606 33.4335 32.3122 33.6621 32.8866 33.6621C33.4609 33.662 34.0118 33.4334 34.4179 33.0273C34.8239 32.6212 35.0527 32.0704 35.0527 31.4961C35.0524 30.9217 34.8233 30.3708 34.4169 29.9648C34.0106 29.559 33.4599 29.3309 32.8857 29.3311ZM24.8905 29.8301C24.6254 29.8301 24.371 29.9356 24.1835 30.123C23.996 30.3106 23.8906 30.5649 23.8905 30.8301C23.8905 31.0953 23.996 31.3496 24.1835 31.5371C24.371 31.7246 24.6254 31.8301 24.8905 31.8301C25.1556 31.83 25.4101 31.7246 25.5976 31.5371C25.785 31.3496 25.8905 31.0952 25.8905 30.8301C25.8905 30.565 25.785 30.3106 25.5976 30.123C25.4101 29.9356 25.1556 29.8302 24.8905 29.8301ZM28.7206 20.502C27.9157 20.5521 27.1594 20.9072 26.6073 21.4951C26.0553 22.083 25.7484 22.8596 25.7489 23.666C25.7495 24.4725 26.0575 25.2487 26.6103 25.8359C27.1631 26.4231 27.9196 26.7771 28.7245 26.8262V26.8301C29.1533 26.8513 29.5819 26.7852 29.9843 26.6357C30.3869 26.4862 30.7553 26.2561 31.0663 25.96C31.3771 25.6639 31.6249 25.3077 31.7939 24.9131C31.9628 24.5184 32.05 24.0934 32.0497 23.6641C32.0494 23.2346 31.9615 22.8096 31.7919 22.415C31.6224 22.0207 31.3746 21.6648 31.0634 21.3691C30.752 21.0734 30.3831 20.8443 29.9804 20.6953C29.5778 20.5464 29.1493 20.4802 28.7206 20.502Z" fill="#2463EB"/>
<g id="ArduinoLab">
<path d="M68.7598 72.0001L78.9998 43.6001H86.1998L96.4398 72.0001H90.1198L88.0398 65.9601H77.1198L75.0398 72.0001H68.7598ZM78.8398 60.9601H86.3598L82.5998 50.0001L78.8398 60.9601Z" fill="#2463EB"/>
<path d="M99.0773 72.0001V50.5601H104.757L104.957 56.8001L104.517 56.6801C104.864 54.5201 105.477 52.9601 106.357 52.0001C107.237 51.0401 108.451 50.5601 109.997 50.5601H111.957V55.5201H109.997C108.877 55.5201 107.957 55.6668 107.237 55.9601C106.517 56.2535 105.971 56.7201 105.597 57.3601C105.251 58.0001 105.077 58.8668 105.077 59.9601V72.0001H99.0773Z" fill="#2463EB"/>
<path d="M122.108 72.4801C120.295 72.4801 118.721 72.0268 117.388 71.1201C116.081 70.1868 115.068 68.8935 114.348 67.2401C113.655 65.5601 113.308 63.5735 113.308 61.2801C113.308 58.9868 113.668 57.0135 114.388 55.3601C115.108 53.6801 116.121 52.3868 117.428 51.4801C118.761 50.5468 120.321 50.0801 122.108 50.0801C123.628 50.0801 124.935 50.4001 126.028 51.0401C127.148 51.6535 127.988 52.5068 128.548 53.6001V43.6001H134.548V72.0001H128.828L128.708 68.8401C128.121 69.9868 127.241 70.8801 126.068 71.5201C124.921 72.1601 123.601 72.4801 122.108 72.4801ZM124.068 67.8801C125.028 67.8801 125.841 67.6268 126.508 67.1201C127.175 66.6135 127.681 65.8801 128.028 64.9201C128.375 63.9335 128.548 62.7201 128.548 61.2801C128.548 59.8135 128.375 58.6001 128.028 57.6401C127.681 56.6535 127.175 55.9201 126.508 55.4401C125.841 54.9335 125.028 54.6801 124.068 54.6801C122.655 54.6801 121.535 55.2801 120.708 56.4801C119.881 57.6535 119.468 59.2535 119.468 61.2801C119.468 63.2801 119.881 64.8801 120.708 66.0801C121.561 67.2801 122.681 67.8801 124.068 67.8801Z" fill="#2463EB"/>
<path d="M146.156 72.4801C143.943 72.4801 142.21 71.7735 140.956 70.3601C139.73 68.9201 139.116 66.9201 139.116 64.3601V50.5601H145.116V62.9601C145.116 64.6135 145.37 65.8268 145.876 66.6001C146.383 67.3468 147.183 67.7201 148.276 67.7201C149.503 67.7201 150.45 67.3068 151.116 66.4801C151.81 65.6268 152.156 64.3601 152.156 62.6801V50.5601H158.156V72.0001H152.676L152.516 65.8401L153.276 66.0001C152.956 68.1335 152.196 69.7468 150.996 70.8401C149.796 71.9335 148.183 72.4801 146.156 72.4801Z" fill="#2463EB"/>
<path d="M163.101 72.0001V50.5601H169.101V72.0001H163.101ZM162.981 47.9201V43.1201H169.181V47.9201H162.981Z" fill="#2463EB"/>
<path d="M174.624 72.0001V50.5601H180.024L180.264 56.8401L179.504 56.6401C179.717 55.0401 180.144 53.7601 180.784 52.8001C181.451 51.8401 182.277 51.1468 183.264 50.7201C184.251 50.2935 185.331 50.0801 186.504 50.0801C188.051 50.0801 189.357 50.4135 190.424 51.0801C191.517 51.7468 192.344 52.6935 192.904 53.9201C193.491 55.1201 193.784 56.5468 193.784 58.2001V72.0001H187.784V60.2001C187.784 59.0535 187.691 58.0801 187.504 57.2801C187.317 56.4801 186.984 55.8801 186.504 55.4801C186.024 55.0535 185.357 54.8401 184.504 54.8401C183.251 54.8401 182.291 55.3068 181.624 56.2401C180.957 57.1468 180.624 58.4668 180.624 60.2001V72.0001H174.624Z" fill="#2463EB"/>
<path d="M208.289 72.4801C206.103 72.4801 204.196 72.0268 202.569 71.1201C200.943 70.1868 199.676 68.8801 198.769 67.2001C197.863 65.5201 197.409 63.5468 197.409 61.2801C197.409 59.0135 197.863 57.0535 198.769 55.4001C199.676 53.7201 200.943 52.4135 202.569 51.4801C204.196 50.5468 206.103 50.0801 208.289 50.0801C210.476 50.0801 212.383 50.5468 214.009 51.4801C215.636 52.4135 216.903 53.7201 217.809 55.4001C218.716 57.0535 219.169 59.0135 219.169 61.2801C219.169 63.5468 218.716 65.5201 217.809 67.2001C216.903 68.8801 215.636 70.1868 214.009 71.1201C212.383 72.0268 210.476 72.4801 208.289 72.4801ZM208.289 67.8801C209.783 67.8801 210.943 67.3068 211.769 66.1601C212.596 64.9868 213.009 63.3601 213.009 61.2801C213.009 59.2001 212.596 57.5868 211.769 56.4401C210.943 55.2668 209.783 54.6801 208.289 54.6801C206.796 54.6801 205.636 55.2668 204.809 56.4401C203.983 57.5868 203.569 59.2001 203.569 61.2801C203.569 63.3601 203.983 64.9868 204.809 66.1601C205.636 67.3068 206.796 67.8801 208.289 67.8801Z" fill="#2463EB"/>
<path d="M223.616 72.0001V43.6001H229.696V70.3601L226.336 66.8801H242.776V72.0001H223.616Z" fill="#0F1729"/>
<path d="M253.211 72.4801C250.997 72.4801 249.184 71.9735 247.771 70.9601C246.384 69.9201 245.691 68.4801 245.691 66.6401C245.691 64.7468 246.277 63.2935 247.451 62.2801C248.651 61.2401 250.411 60.4801 252.731 60.0001L259.651 58.6401C259.651 57.2535 259.331 56.2135 258.691 55.5201C258.077 54.8001 257.184 54.4401 256.011 54.4401C254.864 54.4401 253.971 54.7068 253.331 55.2401C252.691 55.7468 252.277 56.5068 252.091 57.5201L246.051 57.2401C246.451 54.8935 247.504 53.1201 249.211 51.9201C250.944 50.6935 253.211 50.0801 256.011 50.0801C259.211 50.0801 261.611 50.8401 263.211 52.3601C264.837 53.8801 265.651 56.1068 265.651 59.0401V66.3601C265.651 66.9735 265.744 67.3868 265.931 67.6001C266.144 67.7868 266.451 67.8801 266.851 67.8801H267.451V72.0001C267.264 72.0535 266.957 72.1068 266.531 72.1601C266.131 72.2135 265.731 72.2401 265.331 72.2401C264.477 72.2401 263.677 72.0935 262.931 71.8001C262.211 71.5068 261.624 71.0135 261.171 70.3201C260.717 69.6001 260.491 68.5868 260.491 67.2801L261.011 67.6801C260.744 68.6401 260.264 69.4801 259.571 70.2001C258.904 70.9201 258.024 71.4801 256.931 71.8801C255.864 72.2801 254.624 72.4801 253.211 72.4801ZM254.651 68.3601C255.637 68.3601 256.504 68.1735 257.251 67.8001C257.997 67.4001 258.584 66.8268 259.011 66.0801C259.437 65.3335 259.651 64.4535 259.651 63.4401V62.4001L254.771 63.4401C253.811 63.6268 253.077 63.9468 252.571 64.4001C252.091 64.8268 251.851 65.3868 251.851 66.0801C251.851 66.8001 252.091 67.3601 252.571 67.7601C253.051 68.1601 253.744 68.3601 254.651 68.3601Z" fill="#0F1729"/>
<path d="M282.608 72.4801C281.115 72.4801 279.808 72.1601 278.688 71.5201C277.595 70.8801 276.742 69.9868 276.128 68.8401L276.008 72.0001H270.288V43.6001H276.288V53.6001C276.848 52.6135 277.675 51.7868 278.768 51.1201C279.862 50.4268 281.142 50.0801 282.608 50.0801C284.422 50.0801 285.995 50.5468 287.328 51.4801C288.662 52.3868 289.688 53.6801 290.408 55.3601C291.155 57.0401 291.528 59.0135 291.528 61.2801C291.528 63.5468 291.155 65.5201 290.408 67.2001C289.688 68.8801 288.662 70.1868 287.328 71.1201C285.995 72.0268 284.422 72.4801 282.608 72.4801ZM280.928 67.8801C282.262 67.8801 283.328 67.3068 284.128 66.1601C284.955 64.9868 285.368 63.3601 285.368 61.2801C285.368 59.2001 284.968 57.5868 284.168 56.4401C283.368 55.2668 282.302 54.6801 280.968 54.6801C279.982 54.6801 279.128 54.9468 278.408 55.4801C277.715 55.9868 277.182 56.7335 276.808 57.7201C276.462 58.7068 276.288 59.8935 276.288 61.2801C276.288 62.6401 276.462 63.8135 276.808 64.8001C277.182 65.7868 277.715 66.5468 278.408 67.0801C279.128 67.6135 279.968 67.8801 280.928 67.8801Z" fill="#0F1729"/>
</g>
</g>
</svg>
